<svg width="42" height="44" viewBox="0 0 42 44" fill="none" xmlns="http://www.w3.org/2000/svg">
<path fill-rule="evenodd" clip-rule="evenodd" d="M21 0.674805L0.166626 11.0915V32.9084L21 43.3251L41.8333 32.9084V11.0915L21 0.674805ZM21 5.33328L37.6666 13.6666V19.9167C34.2458 19.9167 31.5994 18.2282 29.0722 16.2065C28.6928 15.903 28.2961 15.5746 27.8934 15.2413C27.0508 14.5438 26.182 13.8247 25.3915 13.2667C24.2066 12.4303 22.7158 11.5833 21 11.5833C19.2841 11.5833 17.7933 12.4303 16.6084 13.2667C15.8179 13.8247 14.9492 14.5438 14.1066 15.2412C13.7039 15.5746 13.3071 15.903 12.9277 16.2065C10.4005 18.2282 7.75416 19.9167 4.33329 19.9167V13.6666L21 5.33328ZM4.33329 24.0833V30.3333L21 38.6666L37.6666 30.3333V24.0833C32.7542 24.0833 29.1505 21.6051 26.4693 19.4601C25.9494 19.0442 25.4858 18.6597 25.0561 18.3033C24.3031 17.6787 23.6541 17.1405 22.9886 16.6708C21.96 15.9447 21.3675 15.75 21 15.75C20.6324 15.75 20.0399 15.9447 19.0113 16.6708C18.3459 17.1405 17.6969 17.6787 16.9439 18.3032C16.5142 18.6596 16.0505 19.0442 15.5306 19.4601C12.8494 21.6051 9.24576 24.0833 4.33329 24.0833Z" fill="white"/>
<path fill-rule="evenodd" clip-rule="evenodd" d="M15.2052 27.3868C12.5433 29.5163 9.05935 31.8958 4.33333 31.8958C3.47039 31.8958 2.77083 31.1963 2.77083 30.3333C2.77083 29.4704 3.47039 28.7708 4.33333 28.7708C7.94065 28.7708 10.7067 26.9837 13.2531 24.9466C13.6488 24.63 14.0545 24.2941 14.4617 23.957C15.2948 23.2673 16.1344 22.5722 16.9088 22.0256C18.0742 21.2029 19.4527 20.4375 21 20.4375C22.5473 20.4375 23.9258 21.2029 25.0912 22.0256C25.8656 22.5722 26.7052 23.2673 27.5383 23.957C27.9455 24.2941 28.3512 24.63 28.7469 24.9466C31.2933 26.9837 34.0593 28.7708 37.6667 28.7708C38.5296 28.7708 39.2292 29.4704 39.2292 30.3333C39.2292 31.1963 38.5296 31.8958 37.6667 31.8958C32.9406 31.8958 29.4567 29.5163 26.7947 27.3868C26.2937 26.9859 25.8378 26.6079 25.4103 26.2535C24.6445 25.6185 23.9697 25.059 23.289 24.5786C22.2409 23.8387 21.536 23.5625 21 23.5625C20.4639 23.5625 19.7591 23.8387 18.711 24.5786C18.0303 25.059 17.3555 25.6185 16.5897 26.2535C16.1622 26.6079 15.7063 26.9859 15.2052 27.3868Z" fill="white" fill-opacity="0.7"/>
</svg>
