<svg width="40" height="40" viewBox="0 0 40 40" fill="none" xmlns="http://www.w3.org/2000/svg">
<path fill-rule="evenodd" clip-rule="evenodd" d="M0.916748 0.916626V39.0833H39.0834V0.916626H0.916748ZM5.08341 23.5381V34.9166H34.9167V23.6528C30.4197 23.0305 27.1641 19.5427 24.8371 16.7504C24.3294 16.1411 23.8705 15.5704 23.4421 15.0374C22.6811 14.0909 22.0159 13.2635 21.3422 12.5502C20.8399 12.0183 20.4345 11.6653 20.1067 11.4536C19.8117 11.263 19.6785 11.2507 19.6667 11.25C19.6549 11.2507 19.5217 11.263 19.2268 11.4536C18.899 11.6653 18.4936 12.0183 17.9913 12.5502C17.3176 13.2635 16.6524 14.0909 15.8914 15.0374C15.463 15.5704 15.0041 16.1411 14.4964 16.7504C12.286 19.4028 9.23773 22.6827 5.08341 23.5381ZM34.9167 19.4177C32.4361 18.8334 30.2678 16.7586 28.038 14.0829C27.6482 13.6151 27.2459 13.1156 26.8405 12.6122C26.0037 11.5731 25.1532 10.5171 24.3715 9.68931C23.767 9.04933 23.0983 8.42576 22.368 7.95393C21.6341 7.47967 20.7212 7.08331 19.6667 7.08331C18.6123 7.08331 17.6994 7.47967 16.9655 7.95393C16.2352 8.42576 15.5665 9.04933 14.962 9.68931C14.1803 10.5171 13.3301 11.5727 12.4933 12.6118C12.0878 13.1153 11.6854 13.615 11.2955 14.0829C9.26769 16.5162 7.2907 18.4526 5.08341 19.2229V5.08329H34.9167V19.4177Z" fill="white"/>
<path fill-rule="evenodd" clip-rule="evenodd" d="M14.0962 24.7503C11.5218 27.8396 7.97113 31.5625 3.00004 31.5625C2.13709 31.5625 1.43754 30.8629 1.43754 30C1.43754 29.137 2.13709 28.4375 3.00004 28.4375C6.36228 28.4375 9.06165 25.9103 11.6955 22.7497C12.0993 22.2651 12.5091 21.7562 12.9183 21.2481C13.7468 20.2191 14.5727 19.1934 15.3406 18.3803C15.9323 17.7538 16.5682 17.164 17.2481 16.7247C17.9308 16.2836 18.7456 15.9375 19.6667 15.9375C20.5878 15.9375 21.4026 16.2836 22.0853 16.7247C22.7652 17.164 23.4011 17.7538 23.9928 18.3803C24.7607 19.1934 25.5866 20.2191 26.4151 21.2481C26.8243 21.7562 27.2341 22.2651 27.6379 22.7497C30.2718 25.9103 32.9711 28.4375 36.3334 28.4375C37.1963 28.4375 37.8959 29.137 37.8959 30C37.8959 30.8629 37.1963 31.5625 36.3334 31.5625C31.3623 31.5625 27.8116 27.8396 25.2372 24.7503C24.7451 24.1597 24.2929 23.5974 23.8665 23.0672C23.0949 22.1077 22.4077 21.2532 21.7209 20.526C21.2057 19.9805 20.7674 19.5937 20.3894 19.3495C20.0141 19.107 19.7873 19.0625 19.6667 19.0625C19.5461 19.0625 19.3193 19.107 18.9441 19.3495C18.566 19.5937 18.1277 19.9805 17.6126 20.526C16.9257 21.2532 16.2385 22.1077 15.4669 23.0672C15.0405 23.5975 14.5883 24.1597 14.0962 24.7503Z" fill="white" fill-opacity="0.7"/>
<path fill-rule="evenodd" clip-rule="evenodd" d="M13.6961 30.7502C11.1117 33.8514 7.70299 37.375 3.00004 37.375C2.42474 37.375 1.95837 36.9086 1.95837 36.3333C1.95837 35.758 2.42474 35.2917 3.00004 35.2917C6.63042 35.2917 9.47167 32.5652 12.0956 29.4165C12.5135 28.915 12.9307 28.3969 13.3432 27.8844C14.1632 26.8659 14.9651 25.8698 15.7193 25.0712C16.2982 24.4583 16.9011 23.9023 17.5307 23.4955C18.1622 23.0875 18.879 22.7917 19.6667 22.7917C20.4544 22.7917 21.1712 23.0875 21.8027 23.4955C22.4323 23.9023 23.0352 24.4583 23.6141 25.0712C24.3683 25.8698 25.1703 26.8659 25.9902 27.8844C26.4028 28.3969 26.8199 28.915 27.2378 29.4165C29.8617 32.5652 32.703 35.2917 36.3334 35.2917C36.9087 35.2917 37.375 35.758 37.375 36.3333C37.375 36.9086 36.9087 37.375 36.3334 37.375C31.6304 37.375 28.2217 33.8514 25.6373 30.7502C25.1606 30.1781 24.7152 29.6244 24.2911 29.0972C23.5092 28.1251 22.7996 27.243 22.0995 26.5017C21.5716 25.9428 21.1004 25.5221 20.672 25.2453C20.2455 24.9698 19.9207 24.875 19.6667 24.875C19.4127 24.875 19.0879 24.9698 18.6614 25.2453C18.233 25.5221 17.7618 25.9428 17.2339 26.5017C16.5338 27.243 15.8243 28.1251 15.0423 29.0972C14.6182 29.6244 14.1729 30.1781 13.6961 30.7502Z" fill="white" fill-opacity="0.5"/>
</svg>
