<svg width="40" height="40" viewBox="0 0 40 40" fill="none" xmlns="http://www.w3.org/2000/svg">
<path fill-rule="evenodd" clip-rule="evenodd" d="M39.0834 0.916687H0.916748V39.0834H39.0834V0.916687ZM5.08341 19.8481V5.08335H34.9167V19.8481C31.9767 19.6147 29.6367 18.8192 27.5447 17.9824C27.154 17.8261 26.7509 17.6593 26.3449 17.4912C25.5092 17.1453 24.661 16.7942 23.8836 16.5198C22.681 16.0954 21.3829 15.75 20.0001 15.75C18.6174 15.75 17.3192 16.0954 16.1166 16.5198C15.3392 16.7942 14.4912 17.1452 13.6555 17.4911C13.2494 17.6592 12.8462 17.8261 12.4556 17.9824C10.3635 18.8192 8.02355 19.6148 5.08341 19.8481ZM5.08341 24.0257V34.9167H34.9167V24.0257C31.23 23.7804 28.354 22.7937 25.9972 21.851C25.4906 21.6484 25.0326 21.4585 24.6046 21.2811C23.8422 20.965 23.1747 20.6882 22.4969 20.449C21.4859 20.0922 20.7007 19.9167 20.0001 19.9167C19.2995 19.9167 18.5144 20.0922 17.5034 20.449C16.8256 20.6882 16.1583 20.9648 15.3959 21.2809C14.9679 21.4584 14.5097 21.6484 14.003 21.851C11.6462 22.7937 8.77024 23.7804 5.08341 24.0257Z" fill="white"/>
<path fill-rule="evenodd" clip-rule="evenodd" d="M13.8095 28.5341C11.1205 29.6097 7.78362 30.7292 3.33341 30.7292C2.47047 30.7292 1.77091 30.0296 1.77091 29.1667C1.77091 28.3037 2.47047 27.6042 3.33341 27.6042C7.21654 27.6042 10.1297 26.6403 12.6489 25.6326C13.0533 25.4709 13.4637 25.301 13.8732 25.1314C14.7009 24.7888 15.5252 24.4475 16.2899 24.1776C17.4686 23.7616 18.7026 23.4375 20.0001 23.4375C21.2975 23.4375 22.5316 23.7616 23.7102 24.1776C24.4749 24.4475 25.2993 24.7888 26.127 25.1314C26.5365 25.301 26.9469 25.4709 27.3512 25.6326C29.8705 26.6403 32.7836 27.6042 36.6667 27.6042C37.5297 27.6042 38.2292 28.3037 38.2292 29.1667C38.2292 30.0296 37.5297 30.7292 36.6667 30.7292C32.2165 30.7292 28.8797 29.6097 26.1906 28.5341C25.6992 28.3375 25.2476 28.1503 24.8216 27.9737C24.0489 27.6535 23.3602 27.368 22.6702 27.1245C21.6352 26.7592 20.7859 26.5625 20.0001 26.5625C19.2142 26.5625 18.3649 26.7592 17.33 27.1245C16.64 27.368 15.9513 27.6535 15.1786 27.9737C14.7525 28.1503 14.3009 28.3375 13.8095 28.5341Z" fill="white" fill-opacity="0.7"/>
</svg>
