<svg width="39" height="39" viewBox="0 0 39 39" fill="none" xmlns="http://www.w3.org/2000/svg">
<path fill-rule="evenodd" clip-rule="evenodd" d="M38.4167 6.58333C38.4167 3.08553 35.5811 0.25 32.0833 0.25H6.58333C3.08553 0.25 0.25 3.08553 0.25 6.58333V32.0833C0.25 35.5811 3.08553 38.4167 6.58333 38.4167H32.0833C35.5811 38.4167 38.4167 35.5811 38.4167 32.0833V6.58333ZM4.41667 6.58333C4.41667 5.38672 5.38672 4.41667 6.58333 4.41667H32.0833C33.28 4.41667 34.25 5.38672 34.25 6.58333V17.0393C31.7112 16.5182 29.5854 15.0921 27.541 13.4566C27.1528 13.146 26.7474 12.8104 26.3363 12.4701C25.4776 11.7594 24.5937 11.0278 23.7887 10.4595C22.5816 9.60747 21.07 8.75006 19.3333 8.75006C17.5967 8.75006 16.0851 9.60747 14.878 10.4595C14.073 11.0278 13.1892 11.7593 12.3305 12.4701C11.9193 12.8104 11.5139 13.1459 11.1256 13.4566C9.08125 15.0921 6.95543 16.5182 4.41667 17.0393V6.58333ZM4.41667 21.2675C8.36904 20.6955 11.3902 18.5809 13.7285 16.7102C14.2573 16.2872 14.7295 15.8955 15.1677 15.5322C15.9368 14.8943 16.6009 14.3435 17.2809 13.8635C18.3316 13.1218 18.945 12.9167 19.3333 12.9167C19.7217 12.9167 20.3351 13.1218 21.3858 13.8635C22.0658 14.3435 22.7298 14.8942 23.4989 15.5321C23.937 15.8955 24.4093 16.2872 24.9381 16.7102C27.2765 18.5809 30.2976 20.6955 34.25 21.2675V32.0833C34.25 33.28 33.28 34.25 32.0833 34.25H6.58333C5.38672 34.25 4.41667 33.28 4.41667 32.0833V21.2675Z" fill="white"/>
<path fill-rule="evenodd" clip-rule="evenodd" d="M13.4031 24.8035C10.6891 26.9747 7.14264 29.3959 2.33329 29.3959C1.47035 29.3959 0.770792 28.6963 0.770792 27.8334C0.770792 26.9704 1.47035 26.2709 2.33329 26.2709C6.02394 26.2709 8.85246 24.4421 11.451 22.3633C11.8556 22.0395 12.2699 21.6966 12.6855 21.3525C13.5347 20.6495 14.3893 19.9419 15.1783 19.385C16.3658 18.5467 17.7652 17.7709 19.3333 17.7709C20.9014 17.7709 22.3008 18.5467 23.4883 19.385C24.2772 19.9419 25.1319 20.6495 25.9811 21.3525C26.3967 21.6966 26.811 22.0395 27.2156 22.3633C29.8141 24.4421 32.6426 26.2709 36.3333 26.2709C37.1962 26.2709 37.8958 26.9704 37.8958 27.8334C37.8958 28.6963 37.1962 29.3959 36.3333 29.3959C31.5239 29.3959 27.9775 26.9747 25.2635 24.8035C24.7535 24.3955 24.289 24.0104 23.8531 23.649C23.0712 23.0007 22.3813 22.4287 21.6861 21.938C20.6158 21.1825 19.8902 20.8959 19.3333 20.8959C18.7764 20.8959 18.0508 21.1825 16.9805 21.938C16.2853 22.4287 15.5954 23.0007 14.8135 23.649C14.3776 24.0104 13.9131 24.3955 13.4031 24.8035Z" fill="white" fill-opacity="0.7"/>
</svg>
