<svg width="1000" height="400" viewBox="0 0 1000 400" fill="none" xmlns="http://www.w3.org/2000/svg">
<g clip-path="url(#clip0_175_400)">
<path d="M1000 0H0V400H1000V0Z" fill="url(#paint0_linear_175_400)"/>
<path opacity="0.4" d="M1000 0H0V400H1000V0Z" fill="black"/>
<g opacity="0.1">
<path d="M-12.5 157.895C329.167 122.807 670.833 122.807 1012.5 157.895" stroke="#4A5568"/>
<path d="M-12.5 231.579C329.167 196.491 670.833 196.491 1012.5 231.579" stroke="#4A5568"/>
<path d="M-12.5 305.263C329.167 270.175 670.833 270.175 1012.5 305.263" stroke="#4A5568"/>
</g>
<g filter="url(#filter0_f_175_400)">
<path opacity="0.3" d="M125 106.316C125.69 106.316 126.25 105.845 126.25 105.263C126.25 104.682 125.69 104.211 125 104.211C124.31 104.211 123.75 104.682 123.75 105.263C123.75 105.845 124.31 106.316 125 106.316Z" fill="#6366F1"/>
<path opacity="0.3" d="M875 264.211C875.69 264.211 876.25 263.739 876.25 263.158C876.25 262.577 875.69 262.105 875 262.105C874.31 262.105 873.75 262.577 873.75 263.158C873.75 263.739 874.31 264.211 875 264.211Z" fill="#6366F1"/>
<path opacity="0.3" d="M250 316.842C250.69 316.842 251.25 316.371 251.25 315.79C251.25 315.208 250.69 314.737 250 314.737C249.31 314.737 248.75 315.208 248.75 315.79C248.75 316.371 249.31 316.842 250 316.842Z" fill="#6366F1"/>
<path opacity="0.3" d="M750 85.2632C750.69 85.2632 751.25 84.7919 751.25 84.2106C751.25 83.6292 750.69 83.158 750 83.158C749.31 83.158 748.75 83.6292 748.75 84.2106C748.75 84.7919 749.31 85.2632 750 85.2632Z" fill="#6366F1"/>
</g>
</g>
<defs>
<filter id="filter0_f_175_400" x="119.75" y="79.158" width="760.5" height="241.684" filterUnits="userSpaceOnUse" color-interpolation-filters="sRGB">
<feFlood flood-opacity="0" result="BackgroundImageFix"/>
<feBlend mode="normal" in="SourceGraphic" in2="BackgroundImageFix" result="shape"/>
<feGaussianBlur stdDeviation="2" result="effect1_foregroundBlur_175_400"/>
</filter>
<linearGradient id="paint0_linear_175_400" x1="0" y1="0" x2="27586.2" y2="68965.5" gradientUnits="userSpaceOnUse">
<stop stop-color="#1A1A2E"/>
<stop offset="1" stop-color="#16213E"/>
</linearGradient>
<clipPath id="clip0_175_400">
<rect width="1000" height="400" fill="white"/>
</clipPath>
</defs>
</svg>
