<svg width="118" height="118" viewBox="0 0 118 118" fill="none" xmlns="http://www.w3.org/2000/svg">
<path fill-rule="evenodd" clip-rule="evenodd" d="M59 110C87.1665 110 110 87.1665 110 59C110 30.8335 87.1665 8 59 8C30.8335 8 8 30.8335 8 59C8 87.1665 30.8335 110 59 110ZM59 118C91.5848 118 118 91.5848 118 59C118 26.4152 91.5848 0 59 0C26.4152 0 0 26.4152 0 59C0 91.5848 26.4152 118 59 118Z" fill="white"/>
<path fill-rule="evenodd" clip-rule="evenodd" d="M42.2 41.6773L36.932 63H17C14.7909 63 13 61.2091 13 59C13 56.7909 14.7909 55 17 55H30.668L38.3168 24.0406H46.0832L59 76.3227L71.9168 24.0406H79.6832L87.332 55H101C103.209 55 105 56.7909 105 59C105 61.2091 103.209 63 101 63H81.068L75.8 41.6773L62.8832 93.9594H55.1168L42.2 41.6773Z" fill="white"/>
</svg>
