<svg width="166" height="38" viewBox="0 0 166 38" fill="none" xmlns="http://www.w3.org/2000/svg">
<path fill-rule="evenodd" clip-rule="evenodd" d="M4 23.5C4 15.4919 10.4919 9 18.5 9C26.5081 9 33 15.4919 33 23.5C33 31.5081 26.5081 38 18.5 38C10.4919 38 4 31.5081 4 23.5ZM18.5 13C12.701 13 8 17.701 8 23.5C8 29.299 12.701 34 18.5 34C24.299 34 29 29.299 29 23.5C29 17.701 24.299 13 18.5 13Z" fill="#5A5A5A"/>
<path fill-rule="evenodd" clip-rule="evenodd" d="M8 27.5C8 21.701 12.701 17 18.5 17C24.299 17 29 21.701 29 27.5C29 33.299 24.299 38 18.5 38C12.701 38 8 33.299 8 27.5ZM18.5 21C14.9101 21 12 23.9101 12 27.5C12 31.0899 14.9101 34 18.5 34C22.0899 34 25 31.0899 25 27.5C25 23.9101 22.0899 21 18.5 21Z" fill="#9E9E9E"/>
<path fill-rule="evenodd" clip-rule="evenodd" d="M0 19C0 8.50659 8.50659 0 19 0C29.4934 0 38 8.50659 38 19C38 29.4934 29.4934 38 19 38C8.50659 38 0 29.4934 0 19ZM19 4C10.7157 4 4 10.7157 4 19C4 27.2843 10.7157 34 19 34C27.2843 34 34 27.2843 34 19C34 10.7157 27.2843 4 19 4Z" fill="white"/>
<path d="M45 28.1988V9.5H56.4522V11.5079H47.2V17.6196H55.7189V19.6275H47.2V28.1988H45Z" fill="white"/>
<path d="M62.5022 28.4498C61.6385 28.4498 60.8441 28.2574 60.1189 27.8725C59.4019 27.4793 58.8274 26.8937 58.3956 26.1156C57.9719 25.3292 57.76 24.3503 57.76 23.179V14.9465H59.8378V23.0284C59.8378 24.1746 60.1067 25.0405 60.6444 25.6262C61.1822 26.2034 61.9319 26.4921 62.8933 26.4921C63.8385 26.4921 64.6411 26.1951 65.3011 25.6011C65.9611 25.007 66.2911 24.0407 66.2911 22.7021V14.9465H68.3689V28.1988H66.34V26.2536C65.8918 27.0066 65.3419 27.563 64.69 27.9227C64.0463 28.2741 63.317 28.4498 62.5022 28.4498Z" fill="white"/>
<path d="M77.0833 14.9465V16.7787H74.4678V24.9861C74.4678 25.4965 74.5696 25.8562 74.7733 26.0654C74.9852 26.2662 75.3559 26.3666 75.8856 26.3666H77.0833V28.1988H75.69C73.49 28.1988 72.39 27.2032 72.39 25.212V16.7787H70.0922V14.9465H72.39V11.3322H74.4678V14.9465H77.0833Z" fill="white"/>
<path d="M83.9889 28.4498C83.1252 28.4498 82.3307 28.2574 81.6056 27.8725C80.8885 27.4793 80.3141 26.8937 79.8822 26.1156C79.4585 25.3292 79.2467 24.3503 79.2467 23.179V14.9465H81.3244V23.0284C81.3244 24.1746 81.5933 25.0405 82.1311 25.6262C82.6689 26.2034 83.4185 26.4921 84.38 26.4921C85.3252 26.4921 86.1278 26.1951 86.7878 25.6011C87.4478 25.007 87.7778 24.0407 87.7778 22.7021V14.9465H89.8556V28.1988H87.8267V26.2536C87.3785 27.0066 86.8285 27.563 86.1767 27.9227C85.533 28.2741 84.8037 28.4498 83.9889 28.4498Z" fill="white"/>
<path d="M92.9356 28.1988V14.9465H94.9156V17.0297H94.9644C95.2007 16.3437 95.5756 15.7915 96.0889 15.3732C96.6022 14.9549 97.2622 14.7457 98.0689 14.7457C98.2563 14.7457 98.4274 14.7541 98.5822 14.7708C98.7452 14.7875 98.8674 14.8043 98.9489 14.821V16.9544C98.8674 16.9293 98.7085 16.9 98.4722 16.8666C98.2441 16.8247 97.9793 16.8038 97.6778 16.8038C96.9607 16.8038 96.3374 17.0632 95.8078 17.5819C95.2781 18.1006 95.0133 18.9205 95.0133 20.0416V28.1988H92.9356Z" fill="white"/>
<path d="M106.087 28.5C104.824 28.5 103.744 28.203 102.848 27.609C101.96 27.015 101.279 26.1993 100.807 25.1618C100.334 24.116 100.098 22.928 100.098 21.5978C100.098 20.2508 100.346 19.0544 100.843 18.0086C101.34 16.9628 102.029 16.1429 102.909 15.5489C103.789 14.9465 104.799 14.6453 105.94 14.6453C107.138 14.6453 108.177 14.9381 109.057 15.5238C109.937 16.1094 110.613 16.9251 111.086 17.9709C111.566 19.0167 111.807 20.2257 111.807 21.5978V22.1876H102.151C102.2 23.4844 102.563 24.5385 103.239 25.3501C103.915 26.1616 104.864 26.5674 106.087 26.5674C107.007 26.5674 107.757 26.3498 108.336 25.9148C108.922 25.4797 109.313 24.9192 109.509 24.2332H111.587C111.424 25.0782 111.086 25.8228 110.572 26.467C110.059 27.1028 109.415 27.6006 108.641 27.9604C107.875 28.3201 107.024 28.5 106.087 28.5ZM102.176 20.3554H109.729C109.615 19.1924 109.22 18.2679 108.543 17.5819C107.867 16.8959 106.999 16.5528 105.94 16.5528C104.881 16.5528 104.017 16.8959 103.349 17.5819C102.681 18.2679 102.29 19.1924 102.176 20.3554Z" fill="white"/>
<path d="M119.14 28.1988L112.748 9.5H116.842L119.788 18.5984C120.065 19.4936 120.35 20.4474 120.643 21.4597C120.937 22.4637 121.246 23.5387 121.572 24.6849C121.89 23.5387 122.187 22.4637 122.464 21.4597C122.75 20.4474 123.027 19.4936 123.296 18.5984L126.143 9.5H130.189L123.931 28.1988H119.14Z" fill="white"/>
<path d="M135.493 28.5C134.19 28.5 133.053 28.203 132.083 27.609C131.122 27.015 130.372 26.1993 129.834 25.1618C129.305 24.116 129.04 22.9238 129.04 21.5852C129.04 20.2382 129.309 19.0418 129.847 17.996C130.393 16.9502 131.142 16.1303 132.096 15.5363C133.049 14.9423 134.141 14.6453 135.371 14.6453C136.642 14.6453 137.75 14.9381 138.696 15.5238C139.649 16.1011 140.39 16.9084 140.92 17.9458C141.458 18.9749 141.727 20.1629 141.727 21.5099V22.5013H132.548C132.58 23.4802 132.861 24.2624 133.391 24.8481C133.921 25.4337 134.658 25.7266 135.603 25.7266C136.304 25.7266 136.887 25.5718 137.351 25.2622C137.824 24.9527 138.141 24.5427 138.304 24.0324H141.592C141.437 24.9108 141.075 25.6847 140.504 26.354C139.934 27.0233 139.217 27.5504 138.353 27.9353C137.49 28.3118 136.536 28.5 135.493 28.5ZM132.572 20.142H138.329C138.239 19.3137 137.938 18.6612 137.424 18.1843C136.919 17.699 136.259 17.4564 135.444 17.4564C134.638 17.4564 133.982 17.699 133.477 18.1843C132.971 18.6612 132.67 19.3137 132.572 20.142Z" fill="white"/>
<path d="M143.658 28.1988V14.9465H147.129V17.2054H147.166C147.402 16.4106 147.773 15.8208 148.278 15.4359C148.783 15.0511 149.463 14.8587 150.319 14.8587C150.531 14.8587 150.722 14.8628 150.893 14.8712C151.073 14.8796 151.236 14.8838 151.382 14.8838V18.0337C151.252 18.0253 151.036 18.0128 150.734 17.996C150.433 17.9793 150.131 17.9709 149.83 17.9709C149.089 17.9709 148.473 18.2303 147.984 18.749C147.504 19.2677 147.263 20.0249 147.263 21.0205V28.1988H143.658Z" fill="white"/>
<path d="M160.414 28.4749C159.567 28.4749 158.809 28.2825 158.141 27.8976C157.481 27.5128 156.964 26.9355 156.589 26.1658H156.577V28.1988H153.02V9.5H156.626V16.7787H156.638C157.053 16.0676 157.579 15.5405 158.214 15.1975C158.858 14.8461 159.6 14.6704 160.439 14.6704C161.539 14.6704 162.504 14.9632 163.336 15.5489C164.175 16.1262 164.827 16.9335 165.291 17.9709C165.764 19.0084 166 20.2048 166 21.5601C166 22.9406 165.768 24.1495 165.303 25.1869C164.839 26.2244 164.187 27.0317 163.348 27.609C162.517 28.1863 161.539 28.4749 160.414 28.4749ZM159.486 25.463C160.357 25.463 161.054 25.1242 161.576 24.4465C162.105 23.7605 162.37 22.7983 162.37 21.5601C162.37 20.3219 162.105 19.3639 161.576 18.6863C161.054 18.0002 160.357 17.6572 159.486 17.6572C158.573 17.6572 157.84 18.0128 157.286 18.7239C156.731 19.4351 156.454 20.3804 156.454 21.5601C156.454 22.7481 156.731 23.6977 157.286 24.4089C157.84 25.1116 158.573 25.463 159.486 25.463Z" fill="white"/>
</svg>
