<svg width="97" height="15" viewBox="0 0 97 15" fill="none" xmlns="http://www.w3.org/2000/svg">
<path d="M0 14.5508V0H9.15039V1.5625H1.75781V6.31836H8.56445V7.88086H1.75781V14.5508H0Z" fill="white"/>
<path d="M13.9844 14.7461C13.2943 14.7461 12.6595 14.5964 12.0801 14.2969C11.5072 13.9909 11.0482 13.5352 10.7031 12.9297C10.3646 12.3177 10.1953 11.556 10.1953 10.6445V4.23828H11.8555V10.5273C11.8555 11.4193 12.0703 12.0931 12.5 12.5488C12.9297 12.998 13.5286 13.2227 14.2969 13.2227C15.0521 13.2227 15.6934 12.9915 16.2207 12.5293C16.748 12.0671 17.0117 11.3151 17.0117 10.2734V4.23828H18.6719V14.5508H17.0508V13.0371C16.6927 13.623 16.2533 14.056 15.7324 14.3359C15.2181 14.6094 14.6354 14.7461 13.9844 14.7461Z" fill="white"/>
<path d="M25.6348 4.23828V5.66406H23.5449V12.0508C23.5449 12.4479 23.6263 12.7279 23.7891 12.8906C23.9583 13.0469 24.2546 13.125 24.6777 13.125H25.6348V14.5508H24.5215C22.7637 14.5508 21.8848 13.776 21.8848 12.2266V5.66406H20.0488V4.23828H21.8848V1.42578H23.5449V4.23828H25.6348Z" fill="white"/>
<path d="M31.1523 14.7461C30.4622 14.7461 29.8275 14.5964 29.248 14.2969C28.6751 13.9909 28.2161 13.5352 27.8711 12.9297C27.5326 12.3177 27.3633 11.556 27.3633 10.6445V4.23828H29.0234V10.5273C29.0234 11.4193 29.2383 12.0931 29.668 12.5488C30.0977 12.998 30.6966 13.2227 31.4648 13.2227C32.2201 13.2227 32.8613 12.9915 33.3887 12.5293C33.916 12.0671 34.1797 11.3151 34.1797 10.2734V4.23828H35.8398V14.5508H34.2188V13.0371C33.8607 13.623 33.4212 14.056 32.9004 14.3359C32.3861 14.6094 31.8034 14.7461 31.1523 14.7461Z" fill="white"/>
<path d="M38.3008 14.5508V4.23828H39.8828V5.85938H39.9219C40.1107 5.32552 40.4102 4.89583 40.8203 4.57031C41.2305 4.24479 41.7578 4.08203 42.4023 4.08203C42.5521 4.08203 42.6888 4.08854 42.8125 4.10156C42.9427 4.11458 43.0404 4.1276 43.1055 4.14062V5.80078C43.0404 5.78125 42.9134 5.75846 42.7246 5.73242C42.5423 5.69987 42.3307 5.68359 42.0898 5.68359C41.5169 5.68359 41.0189 5.88542 40.5957 6.28906C40.1725 6.69271 39.9609 7.33073 39.9609 8.20312V14.5508H38.3008Z" fill="white"/>
<path d="M48.8086 14.7852C47.7995 14.7852 46.9368 14.554 46.2207 14.0918C45.5111 13.6296 44.9674 12.9948 44.5898 12.1875C44.2122 11.3737 44.0234 10.4492 44.0234 9.41406C44.0234 8.36589 44.222 7.4349 44.6191 6.62109C45.0163 5.80729 45.5664 5.16927 46.2695 4.70703C46.9727 4.23828 47.7799 4.00391 48.6914 4.00391C49.6484 4.00391 50.4785 4.23177 51.1816 4.6875C51.8848 5.14323 52.4251 5.77799 52.8027 6.5918C53.1868 7.4056 53.3789 8.34635 53.3789 9.41406V9.87305H45.6641C45.7031 10.8822 45.9928 11.7025 46.5332 12.334C47.0736 12.9655 47.832 13.2812 48.8086 13.2812C49.5443 13.2812 50.1432 13.112 50.6055 12.7734C51.0742 12.4349 51.3867 11.9987 51.543 11.4648H53.2031C53.0729 12.1224 52.8027 12.7018 52.3926 13.2031C51.9824 13.6979 51.4681 14.0853 50.8496 14.3652C50.2376 14.6452 49.5573 14.7852 48.8086 14.7852ZM45.6836 8.44727H51.7188C51.6276 7.54232 51.3118 6.82292 50.7715 6.28906C50.2311 5.75521 49.5378 5.48828 48.6914 5.48828C47.8451 5.48828 47.1549 5.75521 46.6211 6.28906C46.0872 6.82292 45.7747 7.54232 45.6836 8.44727Z" fill="white"/>
<path d="M59.2383 14.5508L54.1309 0H57.4023L59.7559 7.08008C59.9772 7.77669 60.2051 8.51888 60.4395 9.30664C60.6738 10.0879 60.9212 10.9245 61.1816 11.8164C61.4355 10.9245 61.6732 10.0879 61.8945 9.30664C62.1224 8.51888 62.3438 7.77669 62.5586 7.08008L64.834 0H68.0664L63.0664 14.5508H59.2383Z" fill="white"/>
<path d="M72.3047 14.7852C71.263 14.7852 70.3548 14.554 69.5801 14.0918C68.8118 13.6296 68.2129 12.9948 67.7832 12.1875C67.36 11.3737 67.1484 10.446 67.1484 9.4043C67.1484 8.35612 67.3633 7.42513 67.793 6.61133C68.2292 5.79753 68.8281 5.15951 69.5898 4.69727C70.3516 4.23503 71.224 4.00391 72.207 4.00391C73.2227 4.00391 74.1081 4.23177 74.8633 4.6875C75.625 5.13672 76.2174 5.76497 76.6406 6.57227C77.0703 7.37305 77.2852 8.29753 77.2852 9.3457V10.1172H69.9512C69.9772 10.8789 70.2018 11.4876 70.625 11.9434C71.0482 12.3991 71.6374 12.627 72.3926 12.627C72.9525 12.627 73.418 12.5065 73.7891 12.2656C74.1667 12.0247 74.4206 11.7057 74.5508 11.3086H77.1777C77.054 11.9922 76.7643 12.5944 76.3086 13.1152C75.8529 13.6361 75.2799 14.0462 74.5898 14.3457C73.8997 14.6387 73.138 14.7852 72.3047 14.7852ZM69.9707 8.28125H74.5703C74.4987 7.63672 74.2578 7.12891 73.8477 6.75781C73.444 6.38021 72.9167 6.19141 72.2656 6.19141C71.6211 6.19141 71.097 6.38021 70.6934 6.75781C70.2897 7.12891 70.0488 7.63672 69.9707 8.28125Z" fill="white"/>
<path d="M78.8281 14.5508V4.23828H81.6016V5.99609H81.6309C81.8197 5.3776 82.1159 4.91862 82.5195 4.61914C82.9232 4.31966 83.4668 4.16992 84.1504 4.16992C84.3197 4.16992 84.4727 4.17318 84.6094 4.17969C84.7526 4.1862 84.8828 4.18945 85 4.18945V6.64062C84.8958 6.63411 84.7233 6.62435 84.4824 6.61133C84.2415 6.59831 84.0007 6.5918 83.7598 6.5918C83.1673 6.5918 82.6758 6.79362 82.2852 7.19727C81.901 7.60091 81.709 8.1901 81.709 8.96484V14.5508H78.8281Z" fill="white"/>
<path d="M92.2168 14.7656C91.5397 14.7656 90.9342 14.6159 90.4004 14.3164C89.873 14.0169 89.4596 13.5677 89.1602 12.9688H89.1504V14.5508H86.3086V0H89.1895V5.66406H89.1992C89.5312 5.11068 89.9512 4.70052 90.459 4.43359C90.9733 4.16016 91.5658 4.02344 92.2363 4.02344C93.1152 4.02344 93.8867 4.2513 94.5508 4.70703C95.2214 5.15625 95.7422 5.78451 96.1133 6.5918C96.4909 7.39909 96.6797 8.33008 96.6797 9.38477C96.6797 10.459 96.4941 11.3997 96.123 12.207C95.752 13.0143 95.2311 13.6426 94.5605 14.0918C93.8965 14.541 93.1152 14.7656 92.2168 14.7656ZM91.4746 12.4219C92.1712 12.4219 92.7279 12.1582 93.1445 11.6309C93.5677 11.097 93.7793 10.3483 93.7793 9.38477C93.7793 8.42122 93.5677 7.67578 93.1445 7.14844C92.7279 6.61458 92.1712 6.34766 91.4746 6.34766C90.7454 6.34766 90.1595 6.62435 89.7168 7.17773C89.2741 7.73112 89.0527 8.4668 89.0527 9.38477C89.0527 10.3092 89.2741 11.0482 89.7168 11.6016C90.1595 12.1484 90.7454 12.4219 91.4746 12.4219Z" fill="white"/>
</svg>
