<svg width="233" height="38" viewBox="0 0 233 38" fill="none" xmlns="http://www.w3.org/2000/svg">
<path fill-rule="evenodd" clip-rule="evenodd" d="M4 23.5C4 15.4919 10.4919 9 18.5 9C26.5081 9 33 15.4919 33 23.5C33 31.5081 26.5081 38 18.5 38C10.4919 38 4 31.5081 4 23.5ZM18.5 13C12.701 13 8 17.701 8 23.5C8 29.299 12.701 34 18.5 34C24.299 34 29 29.299 29 23.5C29 17.701 24.299 13 18.5 13Z" fill="#5A5A5A"/>
<path fill-rule="evenodd" clip-rule="evenodd" d="M8 27.5C8 21.701 12.701 17 18.5 17C24.299 17 29 21.701 29 27.5C29 33.299 24.299 38 18.5 38C12.701 38 8 33.299 8 27.5ZM18.5 21C14.9101 21 12 23.9101 12 27.5C12 31.0899 14.9101 34 18.5 34C22.0899 34 25 31.0899 25 27.5C25 23.9101 22.0899 21 18.5 21Z" fill="#9E9E9E"/>
<path fill-rule="evenodd" clip-rule="evenodd" d="M0 19C0 8.50659 8.50659 0 19 0C29.4934 0 38 8.50659 38 19C38 29.4934 29.4934 38 19 38C8.50659 38 0 29.4934 0 19ZM19 4C10.7157 4 4 10.7157 4 19C4 27.2843 10.7157 34 19 34C27.2843 34 34 27.2843 34 19C34 10.7157 27.2843 4 19 4Z" fill="white"/>
<path d="M45 33.5244V4H62.7935V7.17041H48.4182V16.8203H61.6541V19.9908H48.4182V33.5244H45Z" fill="white"/>
<path d="M72.1935 33.9207C70.8516 33.9207 69.6172 33.6169 68.4905 33.0092C67.3764 32.3884 66.4839 31.4637 65.8129 30.2351C65.1546 28.9934 64.8255 27.4478 64.8255 25.5984V12.5997H68.0537V25.3606C68.0537 27.1704 68.4715 28.5376 69.3071 29.4624C70.1426 30.3738 71.3073 30.8296 72.8012 30.8296C74.2698 30.8296 75.5168 30.3606 76.5422 29.4227C77.5677 28.4848 78.0804 26.959 78.0804 24.8454V12.5997H81.3087V33.5244H78.1564V30.4531C77.4601 31.642 76.6055 32.5205 75.5927 33.0885C74.5926 33.6433 73.4595 33.9207 72.1935 33.9207Z" fill="white"/>
<path d="M94.8485 12.5997V15.4927H90.7846V28.4518C90.7846 29.2576 90.9429 29.8256 91.2594 30.1559C91.5886 30.4729 92.1646 30.6314 92.9875 30.6314H94.8485V33.5244H92.6836C89.2655 33.5244 87.5564 31.9524 87.5564 28.8085V15.4927H83.9863V12.5997H87.5564V6.893H90.7846V12.5997H94.8485Z" fill="white"/>
<path d="M105.578 33.9207C104.236 33.9207 103.001 33.6169 101.875 33.0092C100.761 32.3884 99.8682 31.4637 99.1972 30.2351C98.5389 28.9934 98.2097 27.4478 98.2097 25.5984V12.5997H101.438V25.3606C101.438 27.1704 101.856 28.5376 102.691 29.4624C103.527 30.3738 104.692 30.8296 106.185 30.8296C107.654 30.8296 108.901 30.3606 109.926 29.4227C110.952 28.4848 111.465 26.959 111.465 24.8454V12.5997H114.693V33.5244H111.541V30.4531C110.844 31.642 109.99 32.5205 108.977 33.0885C107.977 33.6433 106.844 33.9207 105.578 33.9207Z" fill="white"/>
<path d="M119.478 33.5244V12.5997H122.555V15.889H122.631C122.998 14.8058 123.58 13.9339 124.378 13.2734C125.175 12.6129 126.201 12.2827 127.454 12.2827C127.745 12.2827 128.011 12.2959 128.252 12.3223C128.505 12.3487 128.695 12.3752 128.821 12.4016V15.7701C128.695 15.7305 128.448 15.6843 128.081 15.6314C127.726 15.5654 127.315 15.5324 126.846 15.5324C125.732 15.5324 124.764 15.9419 123.941 16.7609C123.118 17.5799 122.707 18.8745 122.707 20.6446V33.5244H119.478Z" fill="white"/>
<path d="M139.912 34C137.949 34 136.272 33.531 134.879 32.5931C133.499 31.6552 132.442 30.3672 131.708 28.7292C130.974 27.0779 130.606 25.2021 130.606 23.1017C130.606 20.9749 130.993 19.0859 131.765 17.4346C132.537 15.7834 133.607 14.4888 134.974 13.5509C136.341 12.5997 137.911 12.1242 139.684 12.1242C141.545 12.1242 143.159 12.5865 144.526 13.5112C145.893 14.4359 146.944 15.7239 147.678 17.3752C148.425 19.0264 148.799 20.9353 148.799 23.1017V24.033H133.797C133.873 26.0806 134.436 27.745 135.487 29.0264C136.538 30.3078 138.013 30.9485 139.912 30.9485C141.342 30.9485 142.507 30.605 143.406 29.9181C144.317 29.2312 144.925 28.3461 145.229 27.2629H148.457C148.204 28.5971 147.678 29.7728 146.881 30.79C146.083 31.7939 145.083 32.5799 143.88 33.148C142.69 33.716 141.367 34 139.912 34ZM133.835 21.14H145.571C145.393 19.3038 144.779 17.8441 143.728 16.7609C142.678 15.6777 141.329 15.1361 139.684 15.1361C138.038 15.1361 136.696 15.6777 135.658 16.7609C134.62 17.8441 134.012 19.3038 133.835 21.14Z" fill="white"/>
<path d="M160.193 33.5244L150.261 4H156.623L161.199 18.3659C161.63 19.7794 162.073 21.2853 162.528 22.8838C162.984 24.469 163.465 26.1664 163.972 27.9762C164.465 26.1664 164.928 24.469 165.358 22.8838C165.801 21.2853 166.232 19.7794 166.649 18.3659L171.074 4H177.36L167.637 33.5244H160.193Z" fill="white"/>
<path d="M185.601 34C183.576 34 181.81 33.531 180.303 32.5931C178.809 31.6552 177.644 30.3672 176.809 28.7292C175.986 27.0779 175.575 25.1955 175.575 23.0819C175.575 20.9551 175.992 19.066 176.828 17.4148C177.676 15.7635 178.841 14.469 180.322 13.531C181.803 12.5931 183.5 12.1242 185.411 12.1242C187.386 12.1242 189.108 12.5865 190.577 13.5112C192.058 14.4227 193.21 15.6975 194.033 17.3355C194.868 18.9604 195.286 20.8362 195.286 22.963V24.5284H181.025C181.075 26.074 181.512 27.3091 182.335 28.2338C183.158 29.1585 184.304 29.6209 185.772 29.6209C186.861 29.6209 187.766 29.3765 188.488 28.8877C189.222 28.3989 189.716 27.7517 189.969 26.9458H195.077C194.837 28.3329 194.273 29.5548 193.387 30.6116C192.501 31.6684 191.387 32.5007 190.045 33.1083C188.703 33.7028 187.222 34 185.601 34ZM181.063 20.8032H190.007C189.868 19.4954 189.399 18.465 188.602 17.712C187.817 16.9458 186.791 16.5627 185.525 16.5627C184.272 16.5627 183.253 16.9458 182.468 17.712C181.683 18.465 181.215 19.4954 181.063 20.8032Z" fill="white"/>
<path d="M198.286 33.5244V12.5997H203.68V16.1664H203.737C204.104 14.9115 204.68 13.9802 205.465 13.3725C206.25 12.7649 207.307 12.461 208.636 12.461C208.965 12.461 209.263 12.4676 209.528 12.4808C209.807 12.4941 210.06 12.5007 210.288 12.5007V17.4742C210.086 17.461 209.75 17.4412 209.282 17.4148C208.813 17.3884 208.345 17.3752 207.876 17.3752C206.724 17.3752 205.768 17.7847 205.009 18.6037C204.262 19.4227 203.888 20.6182 203.888 22.1902V33.5244H198.286Z" fill="white"/>
<path d="M224.322 33.9604C223.005 33.9604 221.828 33.6565 220.789 33.0489C219.764 32.4412 218.96 31.5297 218.378 30.3144H218.359V33.5244H212.833V4H218.435V15.4927H218.454C219.099 14.3699 219.916 13.5376 220.903 12.996C221.904 12.4412 223.056 12.1638 224.36 12.1638C226.069 12.1638 227.569 12.6262 228.86 13.5509C230.164 14.4624 231.177 15.7371 231.899 17.3752C232.633 19.0132 233 20.9022 233 23.0423C233 25.2219 232.639 27.1308 231.918 28.7688C231.196 30.4069 230.183 31.6816 228.879 32.5931C227.588 33.5046 226.069 33.9604 224.322 33.9604ZM222.878 29.2048C224.233 29.2048 225.315 28.6697 226.126 27.5997C226.949 26.5165 227.36 24.9974 227.36 23.0423C227.36 21.0872 226.949 19.5746 226.126 18.5046C225.315 17.4214 224.233 16.8798 222.878 16.8798C221.46 16.8798 220.321 17.4412 219.46 18.5641C218.599 19.6869 218.169 21.1797 218.169 23.0423C218.169 24.9181 218.599 26.4174 219.46 27.5403C220.321 28.6499 221.46 29.2048 222.878 29.2048Z" fill="white"/>
</svg>
