<svg width="66" height="29" viewBox="0 0 66 29" fill="none" xmlns="http://www.w3.org/2000/svg">
<path d="M0 8C0 3.58172 3.58172 0 8 0H58C62.4183 0 66 3.58172 66 8V21C66 25.4183 62.4183 29 58 29H8C3.58172 29 0 25.4183 0 21V8Z" fill="#9393FF"/>
<path fill-rule="evenodd" clip-rule="evenodd" d="M33 20C36.3137 20 39 17.3137 39 14C39 10.6863 36.3137 8 33 8C29.6863 8 27 10.6863 27 14C27 17.3137 29.6863 20 33 20ZM33 22C37.4183 22 41 18.4183 41 14C41 9.58172 37.4183 6 33 6C28.5817 6 25 9.58172 25 14C25 18.4183 28.5817 22 33 22Z" fill="black"/>
</svg>
