<svg width="66" height="29" viewBox="0 0 66 29" fill="none" xmlns="http://www.w3.org/2000/svg">
<path d="M0 8C0 3.58172 3.58172 0 8 0H58C62.4183 0 66 3.58172 66 8V21C66 25.4183 62.4183 29 58 29H8C3.58172 29 0 25.4183 0 21V8Z" fill="#9393FF"/>
<path fill-rule="evenodd" clip-rule="evenodd" d="M30.5881 19.7876C30.0823 19.9261 29.5498 20 29 20C25.6863 20 23 17.3137 23 14C23 10.6863 25.6863 8 29 8C29.5498 8 30.0823 8.07394 30.5881 8.21242C29.0619 9.66923 28.1111 11.7236 28.1111 14C28.1111 16.2764 29.0619 18.3308 30.5881 19.7876ZM32.5556 21.1684C31.4845 21.7007 30.2772 22 29 22C24.5817 22 21 18.4183 21 14C21 9.58172 24.5817 6 29 6C30.2772 6 31.4845 6.2993 32.5556 6.83158C33.6266 6.2993 34.8339 6 36.1111 6C40.5294 6 44.1111 9.58172 44.1111 14C44.1111 18.4183 40.5294 22 36.1111 22C34.8339 22 33.6266 21.7007 32.5556 21.1684ZM34.523 8.21242C35.0289 8.07394 35.5614 8 36.1111 8C39.4248 8 42.1111 10.6863 42.1111 14C42.1111 17.3137 39.4248 20 36.1111 20C35.5614 20 35.0289 19.9261 34.523 19.7876C36.0492 18.3308 37 16.2764 37 14C37 11.7236 36.0492 9.66923 34.523 8.21242ZM32.5556 9.1665C34.0381 10.2589 35 12.0171 35 14C35 15.9829 34.0381 17.7411 32.5556 18.8335C31.073 17.7411 30.1111 15.9829 30.1111 14C30.1111 12.0171 31.073 10.2589 32.5556 9.1665Z" fill="black"/>
</svg>
